<svg width="531" height="153" viewBox="0 0 531 153" fill="none" xmlns="http://www.w3.org/2000/svg">
<path d="M456.613 64.64V46.8267H508.583V64.64H456.613ZM496.721 0L531 80H508.784L480.035 9.38667H486.066L457.216 80H435L469.279 0H496.721Z" fill="white"/>
<path d="M392.333 9.70667H413.667V80H392.333V9.70667ZM363 0H443V19.6267H363V0Z" fill="white"/>
<path d="M298.414 64.64V46.8267H354.715V64.64H298.414ZM341.865 0L379 80H354.933L323.787 9.38667H330.321L299.067 80H275L312.135 0H341.865Z" fill="white"/>
<path d="M267 32V48H187V32L267 32Z" fill="white"/>
<path d="M267 64V80H211V64L267 64Z" fill="white"/>
<path d="M267 64V80H187V64L267 64Z" fill="white"/>
<path d="M267 0V16H251V0L267 0Z" fill="white"/>
<path d="M267 0V16H187V0L267 0Z" fill="white"/>
<path d="M111.112 34.9867H139.963C143.486 34.9867 146.233 34.1689 148.206 32.5333C150.179 30.8978 151.165 28.6222 151.165 25.7067C151.165 22.72 150.179 20.4444 148.206 18.88C146.233 17.2444 143.486 16.4267 139.963 16.4267H108.048L117.876 5.86667V80H96V0H143.028C149.087 0 154.371 1.10222 158.88 3.30667C163.389 5.44 166.911 8.42667 169.448 12.2667C171.984 16.0356 173.252 20.5156 173.252 25.7067C173.252 30.7556 171.984 35.2 169.448 39.04C166.911 42.88 163.389 45.8667 158.88 48C154.371 50.1333 149.087 51.2 143.028 51.2H111.112V34.9867ZM122.948 42.56H147.572L176 80H150.637L122.948 42.56Z" fill="white"/>
<path d="M88 46.2404C87.2548 52.9923 84.9515 58.9258 81.0901 64.0409C77.2286 69.0878 72.1478 73.0094 65.8476 75.8056C59.6151 78.6019 52.4342 80 44.3049 80C35.4303 80 27.6736 78.3291 21.0346 74.9872C14.3957 71.6454 9.21324 66.9736 5.4873 60.9719C1.8291 54.9702 0 47.9795 0 40C0 32.0205 1.8291 25.0298 5.4873 19.0281C9.21324 13.0264 14.3957 8.35465 21.0346 5.01279C27.6736 1.67093 35.4303 0 44.3049 0C52.4342 0 59.6151 1.39812 65.8476 4.19437C72.1478 6.99062 77.2286 10.9463 81.0901 16.0614C84.9515 21.1083 87.2548 27.0077 88 33.7596H66.8637C66.1863 30.4859 64.8653 27.7238 62.9007 25.4731C60.9361 23.1543 58.3618 21.3811 55.1778 20.1535C52.0616 18.9258 48.4373 18.312 44.3049 18.312C39.5627 18.312 35.4642 19.1986 32.0092 20.9719C28.5543 22.6769 25.9122 25.1662 24.0831 28.4399C22.254 31.6454 21.3395 35.4987 21.3395 40C21.3395 44.5013 22.254 48.3887 24.0831 51.6624C25.9122 54.8679 28.5543 57.3572 32.0092 59.1304C35.4642 60.8355 39.5627 61.688 44.3049 61.688C48.4373 61.688 52.0616 61.1083 55.1778 59.9488C58.3618 58.7894 60.9361 57.0503 62.9007 54.7315C64.8653 52.4126 66.1863 49.5823 66.8637 46.2404H88Z" fill="white"/>
<path d="M415.199 140.36H419.759C419.983 142.056 420.655 143.544 421.775 144.824C422.895 146.104 424.367 147.096 426.191 147.8C428.047 148.472 430.175 148.808 432.575 148.808C436.191 148.808 439.055 148.2 441.167 146.984C443.311 145.736 444.383 144.056 444.383 141.944C444.383 140.312 443.711 139.064 442.367 138.2C441.055 137.336 438.751 136.712 435.455 136.328L428.495 135.464C424.111 134.952 420.959 133.912 419.039 132.344C417.119 130.744 416.159 128.6 416.159 125.912C416.159 123.768 416.799 121.912 418.079 120.344C419.359 118.744 421.151 117.528 423.455 116.696C425.791 115.832 428.511 115.4 431.615 115.4C434.719 115.4 437.471 115.88 439.871 116.84C442.303 117.768 444.223 119.08 445.631 120.776C447.071 122.44 447.855 124.408 447.983 126.68H443.423C443.231 125.144 442.623 123.832 441.599 122.744C440.575 121.624 439.199 120.76 437.471 120.152C435.775 119.512 433.791 119.192 431.519 119.192C428.223 119.192 425.583 119.784 423.599 120.968C421.647 122.12 420.671 123.736 420.671 125.816C420.671 127.416 421.311 128.648 422.591 129.512C423.903 130.344 426.111 130.952 429.215 131.336L436.031 132.248C439.199 132.632 441.711 133.192 443.567 133.928C445.455 134.664 446.815 135.656 447.647 136.904C448.479 138.12 448.895 139.672 448.895 141.56C448.895 143.832 448.207 145.8 446.831 147.464C445.487 149.128 443.583 150.408 441.119 151.304C438.655 152.2 435.791 152.648 432.527 152.648C429.231 152.648 426.303 152.136 423.743 151.112C421.183 150.056 419.151 148.616 417.647 146.792C416.143 144.936 415.327 142.792 415.199 140.36Z" fill="white"/>
<path d="M400.239 132.08V135.92H375.711V132.08H400.239ZM378.543 134L375.807 150.896L373.407 148.064H401.535V152H371.199L374.175 134L371.199 116H401.295V119.936H373.407L375.807 117.104L378.543 134Z" fill="white"/>
<path d="M328.72 132.992H344.176C346.544 132.992 348.432 132.4 349.84 131.216C351.28 130.032 352 128.448 352 126.464C352 124.448 351.28 122.864 349.84 121.712C348.432 120.528 346.544 119.936 344.176 119.936H328.096L330.112 117.536V152H325.6V116H344.32C346.752 116 348.88 116.448 350.704 117.344C352.528 118.208 353.952 119.424 354.976 120.992C356.032 122.56 356.56 124.384 356.56 126.464C356.56 128.512 356.032 130.32 354.976 131.888C353.952 133.456 352.528 134.688 350.704 135.584C348.88 136.448 346.752 136.88 344.32 136.88H328.72V132.992ZM336.688 135.152H342.256L357.28 152H351.664L336.688 135.152Z" fill="white"/>
<path d="M279.512 136.88C279.512 139.248 279.992 141.312 280.952 143.072C281.944 144.8 283.352 146.144 285.176 147.104C287 148.064 289.144 148.544 291.608 148.544C294.104 148.544 296.248 148.064 298.04 147.104C299.832 146.144 301.224 144.8 302.216 143.072C303.208 141.312 303.704 139.248 303.704 136.88V116H308.216V136.976C308.216 140.08 307.512 142.816 306.104 145.184C304.696 147.52 302.744 149.344 300.248 150.656C297.784 151.968 294.904 152.624 291.608 152.624C288.312 152.624 285.416 151.968 282.92 150.656C280.424 149.344 278.472 147.52 277.064 145.184C275.688 142.816 275 140.08 275 136.976V116H279.512V136.88Z" fill="white"/>
<path d="M241.456 118.16H245.968V152H241.456V118.16ZM226 116H261.424V119.984H226V116Z" fill="white"/>
<path d="M209.614 149.744L207.406 149.888V116H211.774V152H205.966L178.558 118.112L180.766 117.968V152H176.398V116H182.254L209.614 149.744Z" fill="white"/>
<path d="M159.04 132.08V135.92H134.512V132.08H159.04ZM137.344 134L134.608 150.896L132.208 148.064H160.336V152H130L132.976 134L130 116H160.096V119.936H132.208L134.608 117.104L137.344 134Z" fill="white"/>
<path d="M98.408 150.224H96.056L112.424 116H117.32L99.608 152H94.712L77 116H81.896L98.408 150.224Z" fill="white"/>
</svg>
