<svg width="97" height="36" viewBox="0 0 97 36" fill="none" xmlns="http://www.w3.org/2000/svg">
<path fill-rule="evenodd" clip-rule="evenodd" d="M12.6757 0.0182213C11.4685 0.0991902 10.7045 0.20901 9.77859 0.434554C7.16839 1.07047 4.82219 2.51552 3.01206 4.60214C1.01451 6.90477 0 9.72647 0 12.9797C0 15.9608 0.84042 18.5607 2.51191 20.7502C3.25727 21.7266 4.35481 22.7903 5.35208 23.503C7.65866 25.1511 10.3312 25.9579 13.4845 25.9579C17.3368 25.9579 20.4983 24.7491 23.0552 22.2986C24.9611 20.472 26.1378 18.3613 26.645 15.8591C26.8498 14.8486 26.9192 14.1298 26.9201 13.0087C26.9208 12.1482 26.8923 11.7032 26.7896 10.9685C26.4052 8.21926 25.1499 5.70404 23.2067 3.79002C21.069 1.68445 18.204 0.386951 14.9992 0.0730301C14.5694 0.0309251 13.0282 -0.00542116 12.6757 0.0182213ZM32.4847 0.0216649C31.7657 0.119476 31.0738 0.611163 30.7542 1.25148C30.6804 1.39929 30.5962 1.60487 30.5671 1.70832C30.5165 1.888 30.5141 2.39314 30.5141 12.9942C30.5141 23.4751 30.5169 24.1024 30.5656 24.2801C30.6414 24.5569 30.8555 24.9621 31.0422 25.1822C31.3223 25.5124 31.7146 25.7623 32.1771 25.9052C32.3886 25.9705 32.4313 25.9729 33.367 25.9729C34.3028 25.9729 34.3455 25.9705 34.557 25.9052C35.2159 25.7016 35.6973 25.3053 35.9862 24.7286C36.2311 24.2398 36.2157 24.4366 36.2354 21.5599C36.2551 18.6839 36.239 18.8888 36.4845 18.3912C37.2559 16.8279 39.5077 16.6894 40.4777 18.1456C40.5359 18.2329 41.4262 19.7628 42.4562 21.5454C43.4861 23.328 44.3696 24.8499 44.4194 24.9273C44.7226 25.3986 45.1686 25.7299 45.7361 25.9052C45.947 25.9703 45.9917 25.9729 46.8966 25.9729C47.9637 25.9729 48.0335 25.9619 48.5142 25.7179C48.8114 25.5671 49.2273 25.1728 49.4052 24.8733C49.795 24.2172 49.8311 23.3992 49.4994 22.7414C49.4521 22.6477 48.7926 21.5264 48.0337 20.2496C47.2748 18.9728 46.6264 17.863 46.5927 17.7835C46.459 17.467 46.4276 17.3041 46.4284 16.9298C46.4293 16.5239 46.4721 16.3242 46.6308 15.9858C46.7831 15.6612 46.9451 15.4517 47.2691 15.1602C48.1793 14.3413 48.5068 13.9838 48.975 13.298C49.6887 12.2526 50.1403 11.0603 50.3285 9.72418C50.3805 9.35476 50.3804 7.83999 50.3283 7.46701C50.2611 6.98591 50.1767 6.56637 50.0691 6.17926C49.0976 2.68362 46.0052 0.323345 42.0142 0.0313303C41.6218 0.00262364 32.6912 -0.00646293 32.4847 0.0216649ZM54.779 0.0321116C53.8394 0.189853 53.0635 0.951273 52.8941 1.88195C52.8464 2.14364 52.8401 3.03357 52.8839 3.29992C53.0346 4.21448 53.6677 4.90112 54.6108 5.17265C54.7562 5.21449 55.0167 5.22355 56.529 5.23932C58.4949 5.25984 58.4129 5.2513 58.8967 5.48611C59.3476 5.70494 59.7023 6.0539 59.9247 6.49758C60.1854 7.0176 60.1581 6.0263 60.1758 15.5986C60.1909 23.7814 60.1935 24.0989 60.2464 24.2801C60.4792 25.0768 61.0331 25.6415 61.8379 25.9029C62.0309 25.9656 62.0996 25.9705 62.9354 25.9808C63.9265 25.9931 64.1275 25.9716 64.5085 25.8121C65.154 25.5418 65.6089 25.0265 65.8483 24.2945C65.8912 24.1634 65.897 23.3557 65.9109 15.6565L65.9262 7.16316L65.9913 6.93819C66.1049 6.54626 66.3016 6.21329 66.587 5.93042C66.8797 5.64026 67.1325 5.48423 67.5291 5.34909L67.8085 5.25388L69.588 5.23715C71.3228 5.22083 71.3729 5.21878 71.5872 5.15537C72.3928 4.91692 73.0022 4.29979 73.2059 3.51603C73.2561 3.32278 73.2645 3.19502 73.2645 2.61987C73.2645 2.04473 73.2561 1.91697 73.2059 1.72372C73.0366 1.07249 72.5989 0.542377 71.9851 0.245212C71.4597 -0.00912523 72.4077 0.0159641 63.1467 0.0114498C58.6254 0.00925047 54.8599 0.0185396 54.779 0.0321116ZM82.3945 0.0438605C81.946 0.139877 81.4621 0.507507 81.2702 0.898056C81.1364 1.17025 72.1522 23.7648 72.1013 23.9572C72.0459 24.1665 72.0468 24.5119 72.1033 24.7298C72.183 25.0367 72.3148 25.2605 72.5561 25.4984C72.7991 25.7381 73.0818 25.8957 73.3762 25.9557C73.4767 25.9761 74.0343 25.9874 74.9455 25.9874C76.522 25.9874 76.5469 25.9849 76.9263 25.7897C77.1657 25.6665 77.4418 25.4065 77.5783 25.1756C77.6295 25.0889 77.9106 24.3635 78.203 23.5636C78.4954 22.7636 78.7762 22.0278 78.8272 21.9285C78.9621 21.6655 79.2792 21.3645 79.5587 21.2342C79.68 21.1777 79.8494 21.1171 79.9351 21.0997C80.0441 21.0775 81.3896 21.0679 84.4069 21.0679C89.1331 21.0679 88.8666 21.0585 89.2296 21.2388C89.5563 21.401 89.8014 21.6379 89.9668 21.9511C90.0006 22.0151 90.2731 22.7216 90.5725 23.5212C90.8718 24.3207 91.1487 25.0369 91.1878 25.1128C91.3961 25.5173 91.8538 25.8584 92.3176 25.955C92.4209 25.9765 92.9719 25.9874 93.9511 25.9874C95.5788 25.9874 95.6044 25.9851 95.9706 25.8061C96.2138 25.6872 96.5392 25.3719 96.67 25.1284C96.7851 24.9141 96.8826 24.5583 96.8818 24.355C96.8815 24.274 96.8625 24.1205 96.8396 24.0139C96.7985 23.823 87.6175 1.42707 87.3769 0.930698C87.158 0.479177 86.7275 0.149224 86.2205 0.0444971C85.9351 -0.0144499 82.6694 -0.0149997 82.3945 0.0438605ZM37.9994 5.26896C37.7064 5.34324 37.292 5.54867 37.0681 5.73069C36.8344 5.92064 36.6115 6.20603 36.4693 6.49758C36.2533 6.94034 36.2552 6.92425 36.2422 8.4075C36.2294 9.86317 36.2422 10.0471 36.3823 10.4249C36.5965 11.0023 37.0723 11.4992 37.6319 11.7297C38.0734 11.9116 38.0423 11.909 39.7789 11.909C41.1911 11.909 41.4014 11.9031 41.6759 11.8556C42.5151 11.7106 43.1693 11.391 43.6912 10.8711C44.0575 10.5061 44.2864 10.1472 44.4408 9.69524C44.6523 9.07643 44.6685 8.26379 44.4829 7.58152C44.1817 6.47397 43.3008 5.65974 42.073 5.35398C41.5467 5.22292 41.3316 5.20989 39.72 5.21151C38.3362 5.2129 38.2029 5.21736 37.9994 5.26896ZM83.96 10.0883C83.5459 10.187 83.1117 10.5132 82.9199 10.8697C82.7933 11.1049 81.7198 14.0062 81.679 14.2231C81.6365 14.4495 81.6392 14.588 81.691 14.8318C81.8209 15.4435 82.3315 15.9619 82.9441 16.104C83.2196 16.1679 85.5449 16.1679 85.8204 16.104C86.6465 15.9124 87.224 15.0755 87.0904 14.2639C87.0589 14.0727 86.0178 11.2383 85.8602 10.9146C85.7621 10.7131 85.3991 10.3481 85.1859 10.2366C84.8467 10.0592 84.3398 9.99788 83.96 10.0883ZM16.765 11.6945C15.1647 11.8461 13.6957 12.8401 12.9839 14.253C12.7702 14.6772 12.651 15.0101 12.5539 15.4539C12.4968 15.715 12.4874 15.8433 12.4874 16.3655C12.4874 17.0354 12.5285 17.3098 12.7086 17.8413C13.2605 19.4702 14.6883 20.6832 16.4104 20.9861C16.8806 21.0688 17.5885 21.0688 18.0587 20.9861C20.0168 20.6417 21.5648 19.1295 21.9297 17.2047C22.0067 16.7985 22.0067 15.9324 21.9297 15.5263C21.8119 14.9046 21.5466 14.2699 21.1732 13.7164C20.9108 13.3273 20.3182 12.7505 19.9008 12.4776C18.9494 11.8557 17.8808 11.5888 16.765 11.6945ZM87.7775 28.8898C87.7695 28.9105 87.7666 29.1091 87.7711 29.3312L87.7793 29.7349L88.2279 29.7429L88.6764 29.7509V29.3016V28.8523H88.2343C87.899 28.8523 87.7886 28.8614 87.7775 28.8898ZM90.0763 30.1898C89.4897 30.8051 89.3529 30.9638 89.3529 31.029V31.1095H89.7337H90.1145L90.1234 32.2887C90.132 33.4299 90.1344 33.4735 90.1984 33.6404C90.3493 34.034 90.6444 34.32 91.0248 34.4412C91.1842 34.492 91.3147 34.5062 91.7279 34.5172L92.2352 34.5307V34.1396V33.7485L91.8455 33.7384C91.4827 33.729 91.4463 33.7229 91.318 33.6487C91.2423 33.6048 91.1513 33.529 91.116 33.4802C90.9818 33.2947 90.9705 33.1895 90.9705 32.1177V31.1095H91.5882H92.2058V30.7477V30.386H91.5882H90.9705V29.9085V29.431H90.8852C90.8116 29.431 90.7005 29.5353 90.0763 30.1898ZM54.8312 30.2994C53.4149 30.4508 52.5528 31.829 53.0167 33.2001C53.2007 33.7439 53.7015 34.2552 54.2643 34.474C54.5235 34.5747 54.7473 34.611 55.1095 34.611C55.4881 34.611 55.7676 34.5521 56.0731 34.4079C56.5869 34.1654 56.9984 33.6958 57.1565 33.1713L57.2023 33.0194H56.7656H56.3288L56.2415 33.1713C56.1232 33.3773 55.8918 33.5829 55.6532 33.6941C55.465 33.7818 55.4384 33.7862 55.1011 33.7862C54.7508 33.7862 54.7442 33.785 54.5229 33.6775C53.5248 33.1923 53.5248 31.7181 54.5228 31.2327C54.7181 31.1378 54.7716 31.125 55.0204 31.1143C55.5877 31.0899 56.0144 31.3111 56.2809 31.7678L56.3358 31.8618H56.756C57.2402 31.8618 57.2197 31.8788 57.0983 31.5774C56.7427 30.6945 55.8488 30.1906 54.8312 30.2994ZM59.7306 30.3007C58.9743 30.368 58.3043 30.8063 57.9867 31.4416C57.8167 31.7814 57.754 32.0556 57.7549 32.4551C57.7557 32.8774 57.8088 33.1159 57.977 33.4534C58.0779 33.6558 58.1495 33.7484 58.3805 33.9753C58.6888 34.2782 58.9054 34.4094 59.2938 34.5287C59.4898 34.5889 59.57 34.5964 60.0144 34.5951C60.4762 34.5938 60.5323 34.5878 60.7497 34.5163C61.3901 34.3054 61.9097 33.8078 62.1277 33.1964C62.2058 32.9775 62.218 32.8993 62.2283 32.5564C62.243 32.0664 62.1963 31.8271 62.0165 31.4712C61.8613 31.164 61.7009 30.9651 61.4468 30.7645C60.9942 30.4074 60.3842 30.2425 59.7306 30.3007ZM64.8269 30.3449C64.5908 30.4073 64.2794 30.5796 64.0986 30.7478C64.0104 30.8299 63.934 30.8895 63.9289 30.8803C63.9238 30.871 63.9103 30.8244 63.8989 30.7767C63.8876 30.7289 63.8584 30.6215 63.834 30.5379L63.7896 30.386H63.4829H63.1762V32.4551V34.5242H63.6026H64.0291L64.0297 33.3739C64.03 32.7412 64.0436 32.1324 64.0599 32.021C64.1164 31.6349 64.3242 31.314 64.6231 31.1511C64.7614 31.0757 64.8075 31.066 65.0291 31.066C65.2412 31.066 65.299 31.077 65.4101 31.1384C65.5717 31.2276 65.7172 31.411 65.7843 31.6099C65.829 31.7422 65.8364 31.9287 65.8457 33.1424L65.8563 34.5242H66.2809H66.7056V33.2719C66.7056 32.1335 66.7107 32.0019 66.7611 31.8228C66.9005 31.3283 67.3075 31.0185 67.7645 31.0593C68.1344 31.0923 68.378 31.3285 68.4667 31.7403C68.4884 31.8409 68.4997 32.3462 68.4997 33.2089V34.5242H68.943H69.3863L69.3749 33.0411C69.365 31.7633 69.3567 31.5349 69.3143 31.3914C69.2321 31.113 69.0928 30.8772 68.9005 30.6907C68.6195 30.4182 68.3191 30.3002 67.9056 30.2995C67.4181 30.2988 67.0461 30.4483 66.7151 30.7781L66.5039 30.9883L66.4244 30.8754C66.2469 30.6235 65.95 30.4223 65.6321 30.3386C65.4414 30.2884 65.028 30.2916 64.8269 30.3449ZM72.1799 30.3449C71.9438 30.4073 71.6324 30.5796 71.4516 30.7478C71.3634 30.8299 71.287 30.8895 71.2819 30.8803C71.2768 30.871 71.2633 30.8244 71.252 30.7767C71.2406 30.7289 71.2114 30.6215 71.187 30.5379L71.1426 30.386H70.8359H70.5292V32.4551V34.5242H70.9556H71.3821L71.3827 33.3739C71.383 32.7412 71.3966 32.1324 71.4129 32.021C71.4694 31.6349 71.6772 31.314 71.9761 31.1511C72.1144 31.0757 72.1605 31.066 72.3821 31.066C72.5942 31.066 72.652 31.077 72.7631 31.1384C72.9247 31.2276 73.0702 31.411 73.1373 31.6099C73.182 31.7422 73.1895 31.9287 73.1987 33.1424L73.2093 34.5242H73.6339H74.0586V33.2719C74.0586 32.1335 74.0637 32.0019 74.1141 31.8228C74.2535 31.3283 74.6605 31.0185 75.1175 31.0593C75.4874 31.0923 75.731 31.3285 75.8197 31.7403C75.8414 31.8409 75.8527 32.3462 75.8527 33.2089V34.5242H76.296H76.7393L76.7279 33.0411C76.718 31.7633 76.7097 31.5349 76.6673 31.3914C76.5851 31.113 76.4459 30.8772 76.2535 30.6907C75.9725 30.4182 75.6721 30.3002 75.2586 30.2995C74.7711 30.2988 74.3991 30.4483 74.0681 30.7781L73.8569 30.9883L73.7774 30.8754C73.6 30.6235 73.303 30.4223 72.9851 30.3386C72.7944 30.2884 72.381 30.2916 72.1799 30.3449ZM84.5058 30.3577C84.2163 30.4323 83.9651 30.5689 83.7449 30.7713L83.5618 30.9396L83.4867 30.6975C83.4454 30.5643 83.4116 30.4398 83.4116 30.4207C83.4116 30.3959 83.3232 30.386 83.1028 30.386H82.794V32.4551V34.5242H83.2183H83.6425L83.6529 33.2726C83.6629 32.0547 83.665 32.016 83.7306 31.8353C83.8512 31.5027 84.0501 31.2804 84.3515 31.1413C84.4916 31.0767 84.5543 31.066 84.7961 31.066C85.0511 31.066 85.0939 31.0742 85.2507 31.1532C85.4633 31.2601 85.5926 31.4189 85.6815 31.6822C85.7448 31.8694 85.7475 31.9232 85.7579 33.2002L85.7688 34.5242H86.1949H86.621L86.6106 33.0555C86.5991 31.4234 86.6051 31.4774 86.389 31.0706C86.1948 30.705 85.8631 30.4462 85.4569 30.3435C85.2139 30.2821 84.7738 30.2886 84.5058 30.3577ZM77.8233 31.7187C77.8233 32.8306 77.8311 33.0858 77.8701 33.2596C78.006 33.8642 78.4274 34.3242 79.0292 34.5248C79.301 34.6154 79.9312 34.6382 80.2477 34.569C80.7804 34.4524 81.2137 34.1286 81.441 33.6773C81.6317 33.2985 81.6447 33.1721 81.6459 31.681L81.6469 30.386H81.2233H80.7996L80.7861 31.652C80.7751 32.6811 80.764 32.9466 80.727 33.0704C80.6346 33.3791 80.4472 33.6026 80.1778 33.7253C80.0674 33.7756 79.9874 33.7862 79.7204 33.7862C79.4269 33.7862 79.3832 33.7791 79.2487 33.7092C79.0666 33.6147 78.869 33.4086 78.7929 33.2341C78.693 33.0047 78.6767 32.7718 78.6765 31.5652L78.6763 30.386H78.2498H77.8233V31.7187ZM87.794 32.4551V34.5242H88.2205H88.647V32.4551V30.386H88.2205H87.794V32.4551ZM92.6306 30.5372C92.6687 30.6212 93.0791 31.4842 93.5427 32.4551L94.3854 34.2203L94.303 34.3939C93.9676 35.1004 93.8188 35.2194 93.2426 35.2419L92.9117 35.2549V35.6274V36H93.2732C93.8037 36 94.0939 35.91 94.3892 35.6537C94.5566 35.5084 94.8246 35.1214 94.9908 34.7846C95.1399 34.4827 97 30.4245 97 30.4012C97 30.3921 96.7926 30.3881 96.5391 30.3925L96.0782 30.4005L95.4587 31.8286C95.0303 32.8161 94.8312 33.2444 94.8133 33.2166C94.7992 33.1944 94.4999 32.5517 94.1484 31.7884L93.5092 30.4005L93.0353 30.3925L92.5614 30.3846L92.6306 30.5372ZM59.6061 31.1402C59.4116 31.1876 59.1551 31.3412 58.999 31.5035C58.5057 32.0167 58.5052 32.8929 58.9979 33.4055C59.2784 33.6973 59.6014 33.8144 60.0697 33.794C60.415 33.7791 60.6114 33.7159 60.8372 33.547C61.1301 33.3281 61.3021 33.0235 61.3515 32.6364C61.433 31.9979 61.0999 31.4098 60.5336 31.1924C60.3458 31.1203 59.8111 31.0902 59.6061 31.1402Z" fill="#202020"/>
</svg>
